<?xml version="1.0" encoding="UTF-8"?>
<svg id="_Слой_2" data-name="Слой 2" xmlns="http://www.w3.org/2000/svg" viewBox="0 0 500.42 168.24">
  <defs>
    <style>
      .cls-1 {
        fill: #fff;
      }

      .cls-2 {
        fill: #d4af37;
      }
    </style>
  </defs>
  <g id="_Слой_1-2" data-name="Слой 1">
    <g>
      <g>
        <path class="cls-2" d="M174.23,167.36l6.49-7.73h18.23l-7.55-12.92h14.51l12.02,20.65h-43.7ZM151.82,167.36l12.02-20.65h14.52l-12.02,20.65h-14.52ZM190.59,145.32l-1.69-2.88h14.51l1.69,2.88h-14.51ZM164.66,145.32l1.69-2.88h14.51l-1.69,2.88h-14.51ZM187.9,140.68l-1.51-2.52h14.51l1.51,2.52h-14.51ZM167.42,140.68l1.45-2.52h14.44l-1.45,2.52h-14.44ZM170.12,135.97l1.19-2.02h27.15l1.19,2.02h-29.53ZM172.86,131.33l.96-1.66h22.12l.96,1.66h-24.03Z"/>
        <path class="cls-2" d="M232.9,167.36v-20.65h12.31v20.65h-12.31ZM232.9,145.32v-2.88h12.31v2.88h-12.31ZM232.9,140.68v-2.52h12.31v2.52h-12.31ZM210.24,135.97l1.76-2.02h51.37l-1.7,2.02h-51.43ZM214.17,131.33l1.43-1.66h51.38l-1.38,1.66h-51.44Z"/>
        <g>
          <path class="cls-2" d="M329.87,148.31v19.01h11.82v-19.01h-11.82ZM311.25,148.31l-3.64,4.78-3.63-4.78h-13.69l14.42,19.01h5.88l14.35-19.01h-13.69ZM273.6,148.31v19.01h11.82v-19.01h-11.82ZM329.87,143.32v3.35h11.82v-3.35h-11.82ZM315.07,143.32l-2.53,3.35h13.69l2.56-3.35h-13.71ZM300.15,143.32h-13.64l2.56,3.35h13.67l-2.59-3.35ZM273.6,143.32v3.35h11.82v-3.35h-11.82ZM318.9,138.32l-2.04,2.69h24.83v-2.69h-22.78ZM296.4,138.32h-22.79v2.69h24.83l-2.03-2.69ZM322.73,133.38l-1.56,2.01h20.52v-2.01h-18.96ZM292.64,133.38h-19.04v2.01h20.53l-1.49-2.01ZM325.57,129.66l-.06.07h16.17v-.07h-16.12ZM289.79,129.66h-16.19v.07h16.23l-.04-.07Z"/>
          <polygon class="cls-2" points="291.07 131.33 273.6 131.33 273.6 129.73 289.83 129.73 291.07 131.33"/>
          <polygon class="cls-2" points="341.69 129.73 341.69 131.33 324.29 131.33 325.51 129.73 341.69 129.73"/>
        </g>
      </g>
      <g>
        <g>
          <path class="cls-2" d="M341.31,74.31c0-14.15-11.47-25.61-25.61-25.61s-25.61,11.47-25.61,25.61c0,.3.01.6.02.9,12.19,6.66,26.5,14.83,38.03,21.49,7.86-4.37,13.18-12.76,13.18-22.39Z"/>
          <path class="cls-2" d="M270.97,48.6c14.16-24.42,45.45-32.74,69.87-18.58,24.42,14.16,32.74,45.44,18.57,69.87-.19.33-.4.63-.6.95.46.21.91.41,1.37.62,7.95.63,15.58,1.19,22.87,1.76l2.26-3.9-9.13-7.9c1.65-5.85,2.42-11.8,2.36-17.73l10.89-5.22-6.93-26.07-12.05.87c-2.89-5.17-6.52-9.98-10.86-14.23l3.99-11.39-23.33-13.53-7.9,9.12c-5.85-1.65-11.82-2.42-17.75-2.36l-5.23-10.89-26.07,6.93.88,12.05c-5.17,2.9-9.96,6.52-14.21,10.86l-11.39-4-13.54,23.34,9.14,7.91c-.28,1-.52,2-.74,3,4.93.97,8.89,2.06,11.83,3.02,1.11-4.97,2.99-9.87,5.68-14.51Z"/>
          <polygon class="cls-2" points="269.09 9.39 115.74 12.55 270.03 15.75 269.09 9.39"/>
          <polygon class="cls-2" points="247.18 29.23 78.58 32.39 243.52 35.48 247.18 29.23"/>
          <polygon class="cls-2" points="235.59 49.03 108.39 51.64 232.58 54.19 235.59 49.03"/>
        </g>
        <g>
          <path class="cls-1" d="M354.88,167.5c9.03-17.49,24.33-28.99,41.69-28.99s32.91,11.71,41.91,29.45h13.02c-9.63-21.92-27.7-36.69-48.41-36.69s-38.53,14.57-48.21,36.23Z"/>
          <path class="cls-1" d="M90.21,131.27c-20.57,0-38.52,14.57-48.21,36.24,9.04-17.49,24.34-28.99,41.69-28.99s32.91,11.7,41.91,29.45h13.03c-9.64-21.92-27.7-36.7-48.42-36.7Z"/>
          <path class="cls-1" d="M492.96,149.22c-7.54-5.17-25.11-13.17-25.11-13.17-16.18-14.16-31.11-15.79-31.11-15.79-29.51-9.53-99.82-6.68-99.82-6.68,8.04-1.39,40.7-1,40.7-1l-21.95-4.66c-2.86,1.46-7.47,2.57-12.38,3.41-6.68-3.92-54.86-32.19-73.78-41.23,0,0-39.31-19.85-116.34,4.56-4.55,1.4-31.87,13.04-40.08,16.55,12.66-5.17,34.93-12.69,40.05-14.4-.21,1.06-.78,2.21-2.25,2.72,0,0-60.85,19.45-82.59,28.68,0,0,49.18-9.91,85.71,5.16-1.51-.3-79.08-15.61-127.57,10.07h-14.73s1.89,4.63,1.89,8.5c0,0-10.32,6.66-10.32,15.89l-3.28,2.97s.33,12.37,4.12,17.44h3.41c-3.5-8.42-2.53-19.92-2.53-19.92,0-5.63,2.78-8.21,2.78-8.21,0,0,13.76.54,18.26,0,0,0,25.94-6.88,37.93-12.5,0,0-6.36-3.71-10.53-5.9,0,0,27.07-15.08,103.71-1.98,0,0,135.99,3.38,164.78,1,0,0,73.78-.56,116.4,6.64,0,0,21.58,19.66,38.25,22.54,0,0,10.82,1.59,15.89.89,0,0,6.05,3.42,6.3,9.44,0,0-3.05-1.87-6.87-1.36-2.6.35-4.64,2.44-4.96,5.05-.14,1.1-.23,2.5-.23,4.31h4.22v-1.46l1.77.06c.97.02,1.79-.73,1.84-1.71v-.12c.05-.86-.34-1.7-1.05-2.17-.73-.47-1.86-.92-3.6-.92,0,0,.1-1.19,2.41-1.36,1.57-.11,2.97.94,3.34,2.47.54,2.3.13,5.21.13,5.21h3c2.27-1.19,1.54-7.81,1.54-7.81-.2-5.96-7.35-11.21-7.35-11.21ZM57.54,127.01s-25.61,10.53-36.66,11.25c0,0-3.14-1.55-5.15-4.43,0,0,12.43-11.71,23.49-15.09,0,0,12.37,4.04,18.32,8.27ZM144.44,95.11c-2.68-3.72,2.57-5.75,2.57-5.75,8.68-3.5,17.48-6.24,26.04-8.37l12.42,30.85c-32.25-1.97-41.03-16.73-41.03-16.73ZM311.05,113.67c-14.45,1.1-113.1-1.44-121.91-1.67l-13.95-31.53c35.2-8.41,65.73-6.8,65.73-6.8,24.61,1.84,64.5,34.41,70.35,39.3.27.23.14.67-.22.7ZM321.93,113.58s-32.86-23.23-51.92-34.95c0,0-1.82-5.09,1.49-6.01,0,0,56.3,31.12,70.05,38.98-9.58,1.5-19.62,1.98-19.62,1.98ZM475.17,147.42c-.47.3-1.09.28-1.59.04-24.7-11.79-36.84-25.75-36.84-25.75,20.67,3.23,38.29,22.77,38.29,22.77,1.12,1.77.72,2.58.14,2.94Z"/>
        </g>
      </g>
    </g>
  </g>
</svg>